<?xml version="1.0" encoding="UTF-8"?>
<svg id="Capa_2" data-name="Capa 2" xmlns="http://www.w3.org/2000/svg" viewBox="0 0 130.42 110.15">
  <defs>
    <style>
      .cls-1 {
        fill: #664b99;
        stroke-width: 0px;
      }
    </style>
  </defs>
  <g id="Capa_2-2" data-name="Capa 2">
    <g>
      <path class="cls-1" d="m56.61,37.36v64.7c0,4.47-3.63,8.09-8.09,8.09s-8.08-3.63-8.08-8.09v-56.61c0-4.47,3.62-8.08,8.08-8.08h8.09Z"/>
      <path class="cls-1" d="m109.19,110.15h-28.31c-4.47,0-8.08-3.63-8.08-8.09v-16.74c4.32,4.26,9.92,7.23,16.18,8.26v.4h.4c1.87,9.23,10.03,16.18,19.82,16.18Z"/>
      <path class="cls-1" d="m98.6,18.33c-5.45,2.11-10.06,5.91-13.19,10.75-.05.07-.1.15-.14.22l-20.56-11.87-35.39,20.43-13.15,7.59-8.54,4.94-7.63,4.41v-14.02c0-.13,0-.28.01-.42.13-2.62,1.5-4.91,3.55-6.29.03-.02.05-.03.07-.05l.92-.53s.01,0,.02-.01L60.28,1.32c1.27-.84,2.79-1.32,4.42-1.32,1.48,0,2.87.4,4.06,1.1.05.03.09.05.13.07l29.71,17.16Z"/>
      <polygon class="cls-1" points="16.18 45.46 16.18 45.46 7.63 50.39 16.18 45.46"/>
      <path class="cls-1" d="m32.35,93.97l-16.18,12.11-2.9,2.17-.02.02c-1.4,1.18-3.2,1.88-5.17,1.88-4.46,0-8.08-3.62-8.08-8.09v-37.49l16.18-9.34v38.74h16.18Z"/>
      <path class="cls-1" d="m73.69,41.76c-.3.27-.6.55-.89.84-3.09,3.06-5.53,6.79-7.07,10.94h-9.11v-16.18h23.35s-.09.05-.14.07l-6.14,4.33Z"/>
      <path class="cls-1" d="m129.4,77.88v24.18c0,4.47-3.62,8.09-8.08,8.09h-12.13c-9.78,0-17.94-6.95-19.82-16.18h13.43c3.67,0,7.17-.66,10.42-1.86,5.77-2.13,10.7-5.99,14.18-10.95h0c.73-1.05,1.4-2.15,2-3.28Z"/>
      <rect class="cls-1" x="56.61" y="69.7" width="16.18" height="16.18"/>
      <path class="cls-1" d="m88.97,63.21v30.35c-6.26-1.02-11.86-3.99-16.18-8.25v-31.78h-7.06c1.54-4.15,3.97-7.88,7.06-10.94.3-.29.59-.57.89-.84,1.85-1.68,3.92-3.15,6.14-4.33.05-.02.09-.05.13-.07h.92c.32,0,.64.02.95.05-.06.26-.12.51-.18.78-.06.29-.12.59-.17.89h0c-.28,1.58-.43,3.2-.43,4.85,0,2.7.39,5.3,1.12,7.76h0c.48,1.65,1.11,3.23,1.88,4.73.79,1.53,1.71,2.99,2.77,4.33.67.86,1.39,1.68,2.15,2.45Z"/>
      <path class="cls-1" d="m130.42,43.93c0,2.19-.32,4.3-.92,6.29-.03.11-.07.22-.1.33-1.13,3.57-3.15,6.74-5.79,9.25-2.85,2.71-6.42,4.66-10.39,5.53-1.53.33-3.11.51-4.73.51-3.26,0-6.34-.71-9.12-1.98h0c-3.24-1.48-6.04-3.72-8.19-6.5-.84-1.07-1.58-2.24-2.21-3.46-.62-1.21-1.12-2.46-1.5-3.78h0c-.58-1.98-.9-4.06-.9-6.21,0-1.32.12-2.62.34-3.87h0c.04-.24.09-.48.14-.72.08-.38.17-.75.27-1.11.08-.3.16-.59.25-.88.32-1.03.72-2.02,1.18-2.98.39-.8.83-1.57,1.31-2.32,3.36-5.22,8.89-8.92,15.31-9.83,1.02-.15,2.07-.23,3.13-.23,8.67,0,16.16,5.03,19.72,12.32,1.42,2.9,2.21,6.16,2.21,9.6Z"/>
      <path class="cls-1" d="m129.4,61.71v16.17c-.59,1.13-1.26,2.23-2,3.28h0c-3.47,4.97-8.41,8.82-14.18,10.96v-21.14c.4-.07.8-.15,1.19-.23,4.97-1.1,9.44-3.53,13-6.93.7-.67,1.36-1.37,1.98-2.1Z"/>
      <path class="cls-1" d="m130.42,43.93c0,2.19-.32,4.3-.92,6.29-.03.11-.07.22-.1.33-1.13,3.57-3.15,6.74-5.79,9.25-2.85,2.71-6.42,4.66-10.39,5.53-1.53.33-3.11.51-4.73.51-3.26,0-6.34-.71-9.12-1.98h0c-3.24-1.48-6.04-3.72-8.19-6.5-.84-1.07-1.58-2.24-2.21-3.46-.62-1.21-1.12-2.46-1.5-3.78h0c-.58-1.98-.9-4.06-.9-6.21,0-1.32.12-2.62.34-3.87h0c.04-.24.09-.48.14-.72.08-.38.17-.75.27-1.11.08-.3.16-.59.25-.88.32-1.03.72-2.02,1.18-2.98.39-.8.83-1.57,1.31-2.32,3.36-5.22,8.89-8.92,15.31-9.83,1.02-.15,2.07-.23,3.13-.23,8.67,0,16.16,5.03,19.72,12.32,1.42,2.9,2.21,6.16,2.21,9.6Z"/>
    </g>
  </g>
</svg>