<?xml version="1.0" encoding="UTF-8"?>
<svg id="Capa_2" data-name="Capa 2" xmlns="http://www.w3.org/2000/svg" xmlns:xlink="http://www.w3.org/1999/xlink" viewBox="0 0 190.68 161.04">
  <defs>
    <style>
      .cls-1 {
        fill: #99c9ee;
      }

      .cls-1, .cls-2, .cls-3, .cls-4, .cls-5, .cls-6, .cls-7, .cls-8, .cls-9, .cls-10, .cls-11, .cls-12 {
        stroke-width: 0px;
      }

      .cls-2 {
        fill: #392a75;
      }

      .cls-3 {
        fill: #4c348b;
      }

      .cls-4 {
        fill: #4a338b;
      }

      .cls-5 {
        fill: #7571b3;
      }

      .cls-6 {
        fill: #7777b7;
      }

      .cls-7 {
        fill: #664b99;
      }

      .cls-8 {
        fill: url(#Degradado_sin_nombre_45);
      }

      .cls-9 {
        fill: #372971;
      }

      .cls-10 {
        fill: url(#Degradado_sin_nombre_31);
      }

      .cls-11 {
        fill: #fff;
        opacity: .65;
      }

      .cls-12 {
        fill: #3b286f;
      }
    </style>
    <linearGradient id="Degradado_sin_nombre_31" data-name="Degradado sin nombre 31" x1="136.65" y1="154.8" x2="188.02" y2="136.11" gradientUnits="userSpaceOnUse">
      <stop offset="0" stop-color="#694d9a"/>
      <stop offset=".11" stop-color="#695ba0"/>
      <stop offset=".3" stop-color="#6c7fb0"/>
      <stop offset=".57" stop-color="#70bbca"/>
      <stop offset=".62" stop-color="#71c6cf"/>
    </linearGradient>
    <linearGradient id="Degradado_sin_nombre_45" data-name="Degradado sin nombre 45" x1="132.36" y1="45.84" x2="184.88" y2="82.62" gradientUnits="userSpaceOnUse">
      <stop offset="0" stop-color="#ed925a"/>
      <stop offset=".89" stop-color="#e3315b"/>
    </linearGradient>
  </defs>
  <g id="Capa_3" data-name="Capa 3">
    <g>
      <path class="cls-3" d="m82.77,54.62v94.59c0,6.53-5.3,11.83-11.83,11.83s-11.82-5.3-11.82-11.83v-82.77c0-6.53,5.29-11.82,11.82-11.82h11.83Z"/>
      <path class="cls-1" d="m159.63,161.04h-41.39c-6.53,0-11.82-5.3-11.82-11.83v-24.48c6.31,6.23,14.5,10.57,23.65,12.07v.59h.59c2.74,13.49,14.67,23.65,28.97,23.65Z"/>
      <path class="cls-4" d="m154.04,32.5c-9.39,1.34-17.46,6.75-22.38,14.38l-37.05-21.39L23.65,66.46,0,80.12v-20.5c0-.2.01-.41.02-.61.19-3.83,2.2-7.18,5.19-9.2.04-.03.07-.05.11-.07l1.34-.77s.02-.01.03-.02L88.13,1.93c1.86-1.23,4.08-1.93,6.46-1.93,2.16,0,4.2.58,5.94,1.6.07.04.13.07.19.11l53.32,30.79Z"/>
      <path class="cls-7" d="m47.3,137.39l-23.65,17.71-4.24,3.17-.03.03c-2.05,1.72-4.68,2.74-7.56,2.74-6.53,0-11.82-5.3-11.82-11.83v-69.09l23.65-13.66v70.93h23.65Z"/>
      <path class="cls-9" d="m107.73,61.06c-.44.4-.87.81-1.3,1.23-4.52,4.47-8.08,9.92-10.33,15.99h-13.32v-23.65h34.14c-.07.02-.14.07-.21.1"/>
      <path class="cls-10" d="m189.19,113.86v35.35c0,6.53-5.29,11.83-11.82,11.83h-17.74c-14.3,0-26.23-10.16-28.97-23.65h19.64c5.36,0,10.49-.96,15.24-2.72,8.44-3.12,15.65-8.76,20.73-16.01h0c1.07-1.54,2.05-3.14,2.92-4.8Z"/>
      <rect class="cls-2" x="82.77" y="101.91" width="23.65" height="23.65"/>
      <path class="cls-5" d="m116.7,54.72c.07-.03.13-.07.2-.1h1.34c2.29,0,4.42.65,6.23,1.78t.02.01h0c.39.24.77.51,1.12.8.52.41,1,.86,1.44,1.35h0c-.33,1.84-.5,3.74-.5,5.67,0,3.15.46,6.19,1.31,9.07h0c.56,1.93,1.3,3.77,2.2,5.53v57.97c-9.15-1.5-17.34-5.84-23.65-12.07v-46.46h-10.33c2.25-6.07,5.81-11.52,10.33-15.99.43-.42.86-.83,1.3-1.23,2.7-2.46,5.73-4.6,8.98-6.33"/>
      <path class="cls-8" d="m190.68,64.23c0,3.2-.47,6.29-1.34,9.2-.05.17-.1.33-.15.49-1.65,5.22-4.6,9.85-8.46,13.53-4.16,3.96-9.38,6.81-15.19,8.09-2.23.49-4.54.75-6.92.75-4.76,0-9.27-1.04-13.33-2.9h-.01c-4.73-2.16-8.83-5.44-11.98-9.5-1.23-1.57-2.31-3.27-3.23-5.06-.9-1.76-1.64-3.6-2.2-5.52h0c-.85-2.89-1.31-5.93-1.31-9.08,0-1.93.17-3.83.5-5.66h0c.06-.36.13-.71.2-1.05.12-.55.25-1.09.4-1.62.11-.43.23-.86.37-1.28.47-1.5,1.05-2.95,1.72-4.35.57-1.17,1.21-2.3,1.91-3.39,4.92-7.63,12.99-13.04,22.38-14.38,1.49-.22,3.02-.33,4.58-.33,12.67,0,23.62,7.35,28.83,18.02,2.07,4.24,3.23,9.01,3.23,14.04Z"/>
      <path class="cls-12" d="m189.19,73.92v13.13c-2.14,3.36-4.9,6.3-8.1,8.65-4.45,3.27-9.77,5.42-15.55,6.03v-6.19c5.81-1.28,11.03-4.13,15.19-8.09,3.86-3.68,6.81-8.31,8.46-13.53Z"/>
      <path class="cls-6" d="m189.19,87.05v26.81c-.87,1.66-1.85,3.26-2.92,4.79h0c-5.08,7.26-12.29,12.9-20.73,16.02v-32.94c5.78-.61,11.1-2.76,15.55-6.03,3.2-2.35,5.96-5.29,8.1-8.65Z"/>
      <ellipse class="cls-11" cx="143.46" cy="54.62" rx="11.8" ry="7.2" transform="translate(28.93 156.83) rotate(-62.59)"/>
    </g>
  </g>
</svg>